<svg width="261" height="224" viewBox="0 0 261 224" fill="none" xmlns="http://www.w3.org/2000/svg">
<path d="M170.099 91.9987C170.205 91.9987 170.288 92.029 170.349 92.0896C170.409 92.1502 170.44 92.2336 170.44 92.3397V95.3401C170.44 95.4462 170.409 95.5295 170.349 95.5901C170.288 95.6508 170.205 95.6811 170.099 95.6811H166.28C166.204 95.6811 166.166 95.7189 166.166 95.7947V107.569C166.166 107.675 166.136 107.759 166.076 107.819C166.015 107.88 165.932 107.91 165.825 107.91H162.234C162.128 107.91 162.045 107.88 161.984 107.819C161.923 107.759 161.893 107.675 161.893 107.569V95.7947C161.893 95.7189 161.855 95.6811 161.779 95.6811H158.074C157.968 95.6811 157.885 95.6508 157.824 95.5901C157.764 95.5295 157.733 95.4462 157.733 95.3401V92.3397C157.733 92.2336 157.764 92.1502 157.824 92.0896C157.885 92.029 157.968 91.9987 158.074 91.9987H170.099ZM179.776 92.3397C179.776 92.2336 179.806 92.1502 179.867 92.0896C179.927 92.029 180.011 91.9987 180.117 91.9987H183.708C183.814 91.9987 183.898 92.029 183.958 92.0896C184.019 92.1502 184.049 92.2336 184.049 92.3397V107.569C184.049 107.675 184.019 107.759 183.958 107.819C183.898 107.88 183.814 107.91 183.708 107.91H180.117C180.011 107.91 179.927 107.88 179.867 107.819C179.806 107.759 179.776 107.675 179.776 107.569V101.796C179.776 101.72 179.738 101.682 179.662 101.682H176.116C176.04 101.682 176.003 101.72 176.003 101.796V107.569C176.003 107.675 175.972 107.759 175.912 107.819C175.851 107.88 175.768 107.91 175.662 107.91H172.07C171.964 107.91 171.881 107.88 171.82 107.819C171.76 107.759 171.729 107.675 171.729 107.569V92.3397C171.729 92.2336 171.76 92.1502 171.82 92.0896C171.881 92.029 171.964 91.9987 172.07 91.9987H175.662C175.768 91.9987 175.851 92.029 175.912 92.0896C175.972 92.1502 176.003 92.2336 176.003 92.3397V97.9087C176.003 97.9844 176.04 98.0223 176.116 98.0223H179.662C179.738 98.0223 179.776 97.9844 179.776 97.9087V92.3397ZM197.15 95.3174C197.15 95.4234 197.119 95.5068 197.059 95.5674C196.998 95.628 196.915 95.6583 196.809 95.6583H190.012C189.936 95.6583 189.898 95.6962 189.898 95.772V97.9087C189.898 97.9844 189.936 98.0223 190.012 98.0223H194.217C194.323 98.0223 194.407 98.0526 194.467 98.1132C194.528 98.1739 194.558 98.2572 194.558 98.3633V101.318C194.558 101.424 194.528 101.508 194.467 101.568C194.407 101.629 194.323 101.659 194.217 101.659H190.012C189.936 101.659 189.898 101.697 189.898 101.773V104.137C189.898 104.213 189.936 104.251 190.012 104.251H196.809C196.915 104.251 196.998 104.281 197.059 104.341C197.119 104.402 197.15 104.485 197.15 104.591V107.569C197.15 107.675 197.119 107.759 197.059 107.819C196.998 107.88 196.915 107.91 196.809 107.91H185.966C185.86 107.91 185.777 107.88 185.716 107.819C185.655 107.759 185.625 107.675 185.625 107.569V92.3397C185.625 92.2336 185.655 92.1502 185.716 92.0896C185.777 92.029 185.86 91.9987 185.966 91.9987H196.809C196.915 91.9987 196.998 92.029 197.059 92.0896C197.119 92.1502 197.15 92.2336 197.15 92.3397V95.3174Z" fill="white"/>
<path d="M166.257 113.32C166.257 113.214 166.288 113.131 166.348 113.07C166.409 113.009 166.492 112.979 166.598 112.979H170.19C170.296 112.979 170.379 113.009 170.44 113.07C170.5 113.131 170.531 113.214 170.531 113.32V128.55C170.531 128.656 170.5 128.739 170.44 128.8C170.379 128.86 170.296 128.891 170.19 128.891H166.598C166.492 128.891 166.409 128.86 166.348 128.8C166.288 128.739 166.257 128.656 166.257 128.55V122.776C166.257 122.7 166.219 122.662 166.144 122.662H162.598C162.522 122.662 162.484 122.7 162.484 122.776V128.55C162.484 128.656 162.454 128.739 162.393 128.8C162.333 128.86 162.249 128.891 162.143 128.891H158.552C158.446 128.891 158.362 128.86 158.302 128.8C158.241 128.739 158.211 128.656 158.211 128.55V113.32C158.211 113.214 158.241 113.131 158.302 113.07C158.362 113.009 158.446 112.979 158.552 112.979H162.143C162.249 112.979 162.333 113.009 162.393 113.07C162.454 113.131 162.484 113.214 162.484 113.32V118.889C162.484 118.965 162.522 119.003 162.598 119.003H166.144C166.219 119.003 166.257 118.965 166.257 118.889V113.32ZM178.267 129.163C177.009 129.163 175.895 128.913 174.925 128.413C173.971 127.898 173.228 127.186 172.698 126.277C172.167 125.352 171.902 124.284 171.902 123.072V118.798C171.902 117.616 172.167 116.571 172.698 115.661C173.228 114.752 173.971 114.048 174.925 113.547C175.895 113.047 177.009 112.797 178.267 112.797C179.54 112.797 180.653 113.047 181.608 113.547C182.578 114.048 183.328 114.752 183.858 115.661C184.389 116.571 184.654 117.616 184.654 118.798V123.072C184.654 124.284 184.389 125.352 183.858 126.277C183.328 127.186 182.578 127.898 181.608 128.413C180.653 128.913 179.54 129.163 178.267 129.163ZM178.267 125.504C178.903 125.504 179.411 125.299 179.79 124.89C180.184 124.466 180.381 123.905 180.381 123.208V118.753C180.381 118.056 180.184 117.503 179.79 117.093C179.411 116.669 178.903 116.457 178.267 116.457C177.645 116.457 177.138 116.669 176.744 117.093C176.365 117.503 176.175 118.056 176.175 118.753V123.208C176.175 123.905 176.365 124.466 176.744 124.89C177.138 125.299 177.645 125.504 178.267 125.504ZM195.135 113.32C195.135 113.214 195.165 113.131 195.226 113.07C195.286 113.009 195.37 112.979 195.476 112.979H199.067C199.173 112.979 199.257 113.009 199.317 113.07C199.378 113.131 199.408 113.214 199.408 113.32V128.55C199.408 128.656 199.378 128.739 199.317 128.8C199.257 128.86 199.173 128.891 199.067 128.891H195.635C195.453 128.891 195.317 128.815 195.226 128.663L190.589 120.935C190.558 120.889 190.528 120.874 190.498 120.889C190.468 120.889 190.452 120.92 190.452 120.98L190.498 128.55C190.498 128.656 190.468 128.739 190.407 128.8C190.346 128.86 190.263 128.891 190.157 128.891H186.565C186.459 128.891 186.376 128.86 186.315 128.8C186.255 128.739 186.224 128.656 186.224 128.55V113.32C186.224 113.214 186.255 113.131 186.315 113.07C186.376 113.009 186.459 112.979 186.565 112.979H189.998C190.18 112.979 190.316 113.055 190.407 113.206L195.021 120.935C195.052 120.98 195.082 121.003 195.112 121.003C195.142 120.988 195.158 120.95 195.158 120.889L195.135 113.32ZM212.71 116.298C212.71 116.404 212.68 116.487 212.619 116.548C212.559 116.608 212.475 116.639 212.369 116.639H205.573C205.497 116.639 205.459 116.677 205.459 116.752V118.889C205.459 118.965 205.497 119.003 205.573 119.003H209.778C209.884 119.003 209.967 119.033 210.028 119.094C210.089 119.154 210.119 119.238 210.119 119.344V122.299C210.119 122.405 210.089 122.488 210.028 122.549C209.967 122.609 209.884 122.64 209.778 122.64H205.573C205.497 122.64 205.459 122.678 205.459 122.753V125.117C205.459 125.193 205.497 125.231 205.573 125.231H212.369C212.475 125.231 212.559 125.261 212.619 125.322C212.68 125.383 212.71 125.466 212.71 125.572V128.55C212.71 128.656 212.68 128.739 212.619 128.8C212.559 128.86 212.475 128.891 212.369 128.891H201.527C201.421 128.891 201.337 128.86 201.277 128.8C201.216 128.739 201.186 128.656 201.186 128.55V113.32C201.186 113.214 201.216 113.131 201.277 113.07C201.337 113.009 201.421 112.979 201.527 112.979H212.369C212.475 112.979 212.559 113.009 212.619 113.07C212.68 113.131 212.71 113.214 212.71 113.32V116.298ZM220.173 129.072C218.9 129.072 217.786 128.868 216.832 128.459C215.877 128.034 215.134 127.436 214.604 126.663C214.089 125.89 213.831 124.996 213.831 123.981V123.663C213.831 123.556 213.862 123.473 213.922 123.413C213.983 123.352 214.066 123.322 214.172 123.322H217.695C217.801 123.322 217.885 123.352 217.945 123.413C218.006 123.473 218.036 123.556 218.036 123.663V123.799C218.036 124.223 218.256 124.602 218.696 124.935C219.15 125.254 219.749 125.413 220.491 125.413C221.052 125.413 221.454 125.299 221.696 125.072C221.938 124.829 222.06 124.564 222.06 124.276C222.06 123.943 221.908 123.693 221.605 123.526C221.302 123.359 220.749 123.155 219.946 122.912L219.287 122.731C217.786 122.276 216.529 121.67 215.513 120.912C214.498 120.154 213.99 119.056 213.99 117.616C213.99 116.662 214.248 115.82 214.763 115.093C215.278 114.351 215.983 113.782 216.877 113.388C217.786 112.994 218.802 112.797 219.923 112.797C221.105 112.797 222.173 113.017 223.128 113.457C224.098 113.896 224.856 114.517 225.401 115.32C225.962 116.124 226.242 117.04 226.242 118.071V118.275C226.242 118.381 226.212 118.465 226.151 118.525C226.091 118.586 226.007 118.616 225.901 118.616H222.378C222.272 118.616 222.189 118.586 222.128 118.525C222.067 118.465 222.037 118.381 222.037 118.275V118.253C222.037 117.798 221.832 117.389 221.423 117.025C221.014 116.646 220.461 116.457 219.764 116.457C219.279 116.457 218.893 116.555 218.605 116.752C218.332 116.949 218.195 117.222 218.195 117.571C218.195 117.844 218.294 118.078 218.491 118.275C218.703 118.457 219.021 118.639 219.446 118.821C219.87 118.988 220.522 119.207 221.401 119.48C221.522 119.526 222.052 119.692 222.992 119.98C223.946 120.253 224.742 120.761 225.378 121.503C226.015 122.231 226.333 123.117 226.333 124.163C226.333 125.178 226.075 126.057 225.56 126.799C225.045 127.527 224.325 128.087 223.401 128.481C222.476 128.875 221.401 129.072 220.173 129.072ZM239.711 112.979C239.818 112.979 239.901 113.009 239.962 113.07C240.022 113.131 240.052 113.214 240.052 113.32V116.321C240.052 116.427 240.022 116.51 239.962 116.571C239.901 116.631 239.818 116.662 239.711 116.662H235.893C235.817 116.662 235.779 116.699 235.779 116.775V128.55C235.779 128.656 235.749 128.739 235.688 128.8C235.628 128.86 235.544 128.891 235.438 128.891H231.847C231.741 128.891 231.657 128.86 231.597 128.8C231.536 128.739 231.506 128.656 231.506 128.55V116.775C231.506 116.699 231.468 116.662 231.392 116.662H227.687C227.581 116.662 227.498 116.631 227.437 116.571C227.376 116.51 227.346 116.427 227.346 116.321V113.32C227.346 113.214 227.376 113.131 227.437 113.07C227.498 113.009 227.581 112.979 227.687 112.979H239.711Z" fill="white"/>
<path d="M164.28 150.057C163.037 150.057 161.939 149.814 160.984 149.329C160.044 148.845 159.309 148.163 158.779 147.284C158.264 146.39 158.006 145.359 158.006 144.192V139.601C158.006 138.449 158.264 137.434 158.779 136.555C159.309 135.676 160.044 134.994 160.984 134.509C161.939 134.024 163.037 133.782 164.28 133.782C165.522 133.782 166.613 134.009 167.553 134.464C168.508 134.918 169.243 135.562 169.758 136.396C170.288 137.214 170.553 138.169 170.553 139.26C170.553 139.396 170.44 139.48 170.213 139.51L166.621 139.737H166.553C166.371 139.737 166.28 139.654 166.28 139.487C166.28 138.866 166.098 138.373 165.735 138.01C165.371 137.631 164.886 137.441 164.28 137.441C163.674 137.441 163.189 137.631 162.825 138.01C162.461 138.373 162.28 138.866 162.28 139.487V144.374C162.28 144.98 162.461 145.473 162.825 145.852C163.189 146.215 163.674 146.397 164.28 146.397C164.886 146.397 165.371 146.215 165.735 145.852C166.098 145.473 166.28 144.98 166.28 144.374C166.28 144.283 166.31 144.215 166.371 144.17C166.432 144.124 166.515 144.109 166.621 144.124L170.213 144.306C170.44 144.321 170.553 144.397 170.553 144.533C170.553 145.624 170.288 146.587 169.758 147.42C169.243 148.254 168.508 148.905 167.553 149.375C166.613 149.83 165.522 150.057 164.28 150.057ZM178.222 150.148C176.964 150.148 175.851 149.898 174.881 149.398C173.926 148.882 173.184 148.17 172.653 147.261C172.123 146.337 171.858 145.268 171.858 144.056V139.783C171.858 138.601 172.123 137.555 172.653 136.646C173.184 135.737 173.926 135.032 174.881 134.532C175.851 134.032 176.964 133.782 178.222 133.782C179.495 133.782 180.609 134.032 181.564 134.532C182.533 135.032 183.284 135.737 183.814 136.646C184.344 137.555 184.61 138.601 184.61 139.783V144.056C184.61 145.268 184.344 146.337 183.814 147.261C183.284 148.17 182.533 148.882 181.564 149.398C180.609 149.898 179.495 150.148 178.222 150.148ZM178.222 146.488C178.859 146.488 179.366 146.284 179.745 145.874C180.139 145.45 180.336 144.889 180.336 144.192V139.737C180.336 139.04 180.139 138.487 179.745 138.078C179.366 137.653 178.859 137.441 178.222 137.441C177.601 137.441 177.093 137.653 176.699 138.078C176.32 138.487 176.131 139.04 176.131 139.737V144.192C176.131 144.889 176.32 145.45 176.699 145.874C177.093 146.284 177.601 146.488 178.222 146.488ZM196.341 134.191C196.432 134.039 196.568 133.964 196.75 133.964H200.296C200.402 133.964 200.485 133.994 200.546 134.054C200.606 134.115 200.637 134.198 200.637 134.305V149.534C200.637 149.64 200.606 149.723 200.546 149.784C200.485 149.845 200.402 149.875 200.296 149.875H196.704C196.598 149.875 196.515 149.845 196.454 149.784C196.394 149.723 196.363 149.64 196.363 149.534V141.283C196.363 141.222 196.348 141.192 196.318 141.192C196.288 141.177 196.257 141.192 196.227 141.237L194.681 143.76C194.59 143.912 194.454 143.988 194.272 143.988H192.545C192.363 143.988 192.226 143.912 192.136 143.76L190.59 141.237C190.56 141.192 190.529 141.177 190.499 141.192C190.469 141.192 190.453 141.222 190.453 141.283V149.534C190.453 149.64 190.423 149.723 190.363 149.784C190.302 149.845 190.219 149.875 190.112 149.875H186.521C186.415 149.875 186.332 149.845 186.271 149.784C186.21 149.723 186.18 149.64 186.18 149.534V134.305C186.18 134.198 186.21 134.115 186.271 134.054C186.332 133.994 186.415 133.964 186.521 133.964H190.067C190.249 133.964 190.385 134.039 190.476 134.191L193.34 138.805C193.386 138.896 193.431 138.896 193.477 138.805L196.341 134.191ZM209.34 133.964C210.416 133.964 211.363 134.183 212.181 134.623C212.999 135.047 213.628 135.661 214.068 136.464C214.522 137.252 214.749 138.161 214.749 139.192C214.749 140.207 214.515 141.101 214.045 141.874C213.575 142.647 212.916 143.245 212.067 143.67C211.219 144.094 210.241 144.306 209.135 144.306H206.726C206.65 144.306 206.612 144.344 206.612 144.42V149.534C206.612 149.64 206.582 149.723 206.521 149.784C206.46 149.845 206.377 149.875 206.271 149.875H202.68C202.573 149.875 202.49 149.845 202.429 149.784C202.369 149.723 202.339 149.64 202.339 149.534V134.305C202.339 134.198 202.369 134.115 202.429 134.054C202.49 133.994 202.573 133.964 202.68 133.964H209.34ZM208.635 140.896C209.196 140.896 209.643 140.752 209.976 140.465C210.325 140.161 210.499 139.767 210.499 139.283C210.499 138.782 210.325 138.381 209.976 138.078C209.643 137.775 209.196 137.623 208.635 137.623H206.726C206.65 137.623 206.612 137.661 206.612 137.737V140.783C206.612 140.859 206.65 140.896 206.726 140.896H208.635ZM224.898 149.875C224.686 149.875 224.557 149.777 224.512 149.58L224.012 147.807C223.982 147.746 223.944 147.716 223.898 147.716H219.079C219.034 147.716 218.996 147.746 218.966 147.807L218.466 149.58C218.42 149.777 218.291 149.875 218.079 149.875H214.192C213.919 149.875 213.821 149.746 213.897 149.489L218.693 134.236C218.754 134.054 218.882 133.964 219.079 133.964H223.898C224.095 133.964 224.224 134.054 224.285 134.236L229.081 149.489C229.096 149.519 229.104 149.564 229.104 149.625C229.104 149.792 228.997 149.875 228.785 149.875H224.898ZM219.966 144.306C219.951 144.397 219.981 144.442 220.057 144.442H222.898C222.989 144.442 223.019 144.397 222.989 144.306L221.534 139.214C221.519 139.169 221.496 139.146 221.466 139.146C221.436 139.146 221.413 139.169 221.398 139.214L219.966 144.306ZM239.398 134.305C239.398 134.198 239.428 134.115 239.488 134.054C239.549 133.994 239.632 133.964 239.738 133.964H243.33C243.436 133.964 243.519 133.994 243.58 134.054C243.641 134.115 243.671 134.198 243.671 134.305V149.534C243.671 149.64 243.641 149.723 243.58 149.784C243.519 149.845 243.436 149.875 243.33 149.875H239.898C239.716 149.875 239.579 149.799 239.488 149.648L234.851 141.919C234.821 141.874 234.791 141.859 234.76 141.874C234.73 141.874 234.715 141.904 234.715 141.965L234.76 149.534C234.76 149.64 234.73 149.723 234.67 149.784C234.609 149.845 234.526 149.875 234.419 149.875H230.828C230.722 149.875 230.639 149.845 230.578 149.784C230.517 149.723 230.487 149.64 230.487 149.534V134.305C230.487 134.198 230.517 134.115 230.578 134.054C230.639 133.994 230.722 133.964 230.828 133.964H234.26C234.442 133.964 234.579 134.039 234.67 134.191L239.284 141.919C239.314 141.965 239.344 141.987 239.375 141.987C239.405 141.972 239.42 141.934 239.42 141.874L239.398 134.305ZM250.154 149.83C250.048 149.83 249.964 149.799 249.904 149.739C249.843 149.678 249.813 149.595 249.813 149.489V144.465L249.79 144.329L245.153 134.373L245.108 134.191C245.108 134.039 245.206 133.964 245.403 133.964H249.313C249.51 133.964 249.646 134.054 249.722 134.236L251.881 139.669C251.927 139.775 251.972 139.775 252.018 139.669L254.177 134.236C254.253 134.054 254.389 133.964 254.586 133.964H258.519C258.716 133.964 258.814 134.039 258.814 134.191L258.769 134.373L254.086 144.329C254.071 144.359 254.063 144.404 254.063 144.465V149.489C254.063 149.595 254.033 149.678 253.972 149.739C253.912 149.799 253.829 149.83 253.722 149.83H250.154Z" fill="white"/>
<path d="M52.1378 138.258V187.753L35.6966 191.723L26.4604 193.954C26.4207 193.964 26.3801 193.971 26.3392 193.975C25.427 194.189 23.584 194.648 23.584 194.648C22.7902 193.726 21.8843 192.907 20.8873 192.21L12.8516 185.663L23.5812 177.562V137.695L52.1378 138.258Z" fill="#BFBFBF"/>
<path d="M52.1373 53.0405V92.5438L23.659 99.6634V77.6633L13.5391 55.376L20.4774 46.6706C21.6585 45.5171 22.7241 44.2512 23.6592 42.8906C23.6592 42.8906 25.9538 43.7117 27.0584 44.1037L31.7406 45.7713L52.1373 53.0405Z" fill="#BFBFBF"/>
<path d="M171.797 158.894L171.35 160.512L122.049 167.598V158.333L147.341 154.121L167.182 155.71L171.85 156.081C171.865 156.08 171.88 156.082 171.893 156.088C172.321 156.124 174.145 156.268 174.145 156.268C174.145 156.268 171.797 158.039 171.797 158.894Z" fill="#BFBFBF"/>
<path d="M171.397 74.1809L173.099 78.5335C173.288 79.5509 173.641 80.5307 174.145 81.4345C174.145 81.4345 172.021 81.7887 171.301 81.917C171.299 81.9197 171.295 81.9218 171.292 81.923C171.288 81.9242 171.284 81.9246 171.28 81.9242L161.41 83.6132L147.277 86.0363L122.049 77.1635V56.9023L137.307 64.0861L171.397 74.1809Z" fill="#BFBFBF"/>
<path d="M122.047 56.9038V167.602L174.152 156.272V184.143L90.5386 221.701C89.9791 221.963 89.1224 222.348 88.4052 222.663C87.6885 222.977 87.1113 223.24 87.1113 223.24V1.00391L174.152 58.5125V81.4355L122.047 56.9038Z" fill="white"/>
<path d="M87.0473 0.945312L52.1347 24.2582V92.5446L23.6585 99.6645V42.8939L0.0605469 58.5238V184.142L23.5815 194.647V137.695L52.1347 138.256V207.285L87.1032 223.232L87.0473 0.945312Z" fill="#1A1A1A"/>
</svg>
