<svg width="318" height="290" viewBox="0 0 318 290" fill="none" xmlns="http://www.w3.org/2000/svg">
<path d="M227.099 157.999C227.205 157.999 227.288 158.029 227.349 158.09C227.409 158.15 227.44 158.234 227.44 158.34V161.34C227.44 161.446 227.409 161.53 227.349 161.59C227.288 161.651 227.205 161.681 227.099 161.681H223.28C223.204 161.681 223.166 161.719 223.166 161.795V173.569C223.166 173.675 223.136 173.759 223.076 173.819C223.015 173.88 222.932 173.91 222.825 173.91H219.234C219.128 173.91 219.045 173.88 218.984 173.819C218.923 173.759 218.893 173.675 218.893 173.569V161.795C218.893 161.719 218.855 161.681 218.779 161.681H215.074C214.968 161.681 214.885 161.651 214.824 161.59C214.764 161.53 214.733 161.446 214.733 161.34V158.34C214.733 158.234 214.764 158.15 214.824 158.09C214.885 158.029 214.968 157.999 215.074 157.999H227.099ZM236.776 158.34C236.776 158.234 236.806 158.15 236.867 158.09C236.927 158.029 237.011 157.999 237.117 157.999H240.708C240.814 157.999 240.898 158.029 240.958 158.09C241.019 158.15 241.049 158.234 241.049 158.34V173.569C241.049 173.675 241.019 173.759 240.958 173.819C240.898 173.88 240.814 173.91 240.708 173.91H237.117C237.011 173.91 236.927 173.88 236.867 173.819C236.806 173.759 236.776 173.675 236.776 173.569V167.796C236.776 167.72 236.738 167.682 236.662 167.682H233.116C233.04 167.682 233.003 167.72 233.003 167.796V173.569C233.003 173.675 232.972 173.759 232.912 173.819C232.851 173.88 232.768 173.91 232.662 173.91H229.07C228.964 173.91 228.881 173.88 228.82 173.819C228.76 173.759 228.729 173.675 228.729 173.569V158.34C228.729 158.234 228.76 158.15 228.82 158.09C228.881 158.029 228.964 157.999 229.07 157.999H232.662C232.768 157.999 232.851 158.029 232.912 158.09C232.972 158.15 233.003 158.234 233.003 158.34V163.909C233.003 163.984 233.04 164.022 233.116 164.022H236.662C236.738 164.022 236.776 163.984 236.776 163.909V158.34ZM254.15 161.317C254.15 161.423 254.119 161.507 254.059 161.567C253.998 161.628 253.915 161.658 253.809 161.658H247.012C246.936 161.658 246.898 161.696 246.898 161.772V163.909C246.898 163.984 246.936 164.022 247.012 164.022H251.217C251.323 164.022 251.407 164.053 251.467 164.113C251.528 164.174 251.558 164.257 251.558 164.363V167.318C251.558 167.424 251.528 167.508 251.467 167.568C251.407 167.629 251.323 167.659 251.217 167.659H247.012C246.936 167.659 246.898 167.697 246.898 167.773V170.137C246.898 170.213 246.936 170.251 247.012 170.251H253.809C253.915 170.251 253.998 170.281 254.059 170.341C254.119 170.402 254.15 170.485 254.15 170.591V173.569C254.15 173.675 254.119 173.759 254.059 173.819C253.998 173.88 253.915 173.91 253.809 173.91H242.966C242.86 173.91 242.777 173.88 242.716 173.819C242.655 173.759 242.625 173.675 242.625 173.569V158.34C242.625 158.234 242.655 158.15 242.716 158.09C242.777 158.029 242.86 157.999 242.966 157.999H253.809C253.915 157.999 253.998 158.029 254.059 158.09C254.119 158.15 254.15 158.234 254.15 158.34V161.317Z" fill="white"/>
<path d="M223.257 179.32C223.257 179.214 223.288 179.131 223.348 179.07C223.409 179.009 223.492 178.979 223.598 178.979H227.19C227.296 178.979 227.379 179.009 227.44 179.07C227.5 179.131 227.531 179.214 227.531 179.32V194.55C227.531 194.656 227.5 194.739 227.44 194.8C227.379 194.86 227.296 194.891 227.19 194.891H223.598C223.492 194.891 223.409 194.86 223.348 194.8C223.288 194.739 223.257 194.656 223.257 194.55V188.776C223.257 188.7 223.219 188.662 223.144 188.662H219.598C219.522 188.662 219.484 188.7 219.484 188.776V194.55C219.484 194.656 219.454 194.739 219.393 194.8C219.333 194.86 219.249 194.891 219.143 194.891H215.552C215.446 194.891 215.362 194.86 215.302 194.8C215.241 194.739 215.211 194.656 215.211 194.55V179.32C215.211 179.214 215.241 179.131 215.302 179.07C215.362 179.009 215.446 178.979 215.552 178.979H219.143C219.249 178.979 219.333 179.009 219.393 179.07C219.454 179.131 219.484 179.214 219.484 179.32V184.889C219.484 184.965 219.522 185.003 219.598 185.003H223.144C223.219 185.003 223.257 184.965 223.257 184.889V179.32ZM235.267 195.163C234.009 195.163 232.895 194.913 231.925 194.413C230.971 193.898 230.228 193.186 229.698 192.277C229.167 191.352 228.902 190.284 228.902 189.072V184.798C228.902 183.616 229.167 182.571 229.698 181.661C230.228 180.752 230.971 180.048 231.925 179.547C232.895 179.047 234.009 178.797 235.267 178.797C236.54 178.797 237.653 179.047 238.608 179.547C239.578 180.048 240.328 180.752 240.858 181.661C241.389 182.571 241.654 183.616 241.654 184.798V189.072C241.654 190.284 241.389 191.352 240.858 192.277C240.328 193.186 239.578 193.898 238.608 194.413C237.653 194.913 236.54 195.163 235.267 195.163ZM235.267 191.504C235.903 191.504 236.411 191.299 236.79 190.89C237.184 190.466 237.381 189.905 237.381 189.208V184.753C237.381 184.056 237.184 183.503 236.79 183.093C236.411 182.669 235.903 182.457 235.267 182.457C234.645 182.457 234.138 182.669 233.744 183.093C233.365 183.503 233.175 184.056 233.175 184.753V189.208C233.175 189.905 233.365 190.466 233.744 190.89C234.138 191.299 234.645 191.504 235.267 191.504ZM252.135 179.32C252.135 179.214 252.165 179.131 252.226 179.07C252.286 179.009 252.37 178.979 252.476 178.979H256.067C256.173 178.979 256.257 179.009 256.317 179.07C256.378 179.131 256.408 179.214 256.408 179.32V194.55C256.408 194.656 256.378 194.739 256.317 194.8C256.257 194.86 256.173 194.891 256.067 194.891H252.635C252.453 194.891 252.317 194.815 252.226 194.663L247.589 186.935C247.558 186.889 247.528 186.874 247.498 186.889C247.468 186.889 247.452 186.92 247.452 186.98L247.498 194.55C247.498 194.656 247.468 194.739 247.407 194.8C247.346 194.86 247.263 194.891 247.157 194.891H243.565C243.459 194.891 243.376 194.86 243.315 194.8C243.255 194.739 243.224 194.656 243.224 194.55V179.32C243.224 179.214 243.255 179.131 243.315 179.07C243.376 179.009 243.459 178.979 243.565 178.979H246.998C247.18 178.979 247.316 179.055 247.407 179.206L252.021 186.935C252.052 186.98 252.082 187.003 252.112 187.003C252.142 186.988 252.158 186.95 252.158 186.889L252.135 179.32ZM269.71 182.298C269.71 182.404 269.68 182.487 269.619 182.548C269.559 182.608 269.475 182.639 269.369 182.639H262.573C262.497 182.639 262.459 182.677 262.459 182.752V184.889C262.459 184.965 262.497 185.003 262.573 185.003H266.778C266.884 185.003 266.967 185.033 267.028 185.094C267.089 185.154 267.119 185.238 267.119 185.344V188.299C267.119 188.405 267.089 188.488 267.028 188.549C266.967 188.609 266.884 188.64 266.778 188.64H262.573C262.497 188.64 262.459 188.678 262.459 188.753V191.117C262.459 191.193 262.497 191.231 262.573 191.231H269.369C269.475 191.231 269.559 191.261 269.619 191.322C269.68 191.383 269.71 191.466 269.71 191.572V194.55C269.71 194.656 269.68 194.739 269.619 194.8C269.559 194.86 269.475 194.891 269.369 194.891H258.527C258.421 194.891 258.337 194.86 258.277 194.8C258.216 194.739 258.186 194.656 258.186 194.55V179.32C258.186 179.214 258.216 179.131 258.277 179.07C258.337 179.009 258.421 178.979 258.527 178.979H269.369C269.475 178.979 269.559 179.009 269.619 179.07C269.68 179.131 269.71 179.214 269.71 179.32V182.298ZM277.173 195.072C275.9 195.072 274.786 194.868 273.832 194.459C272.877 194.034 272.134 193.436 271.604 192.663C271.089 191.89 270.831 190.996 270.831 189.981V189.663C270.831 189.556 270.862 189.473 270.922 189.413C270.983 189.352 271.066 189.322 271.172 189.322H274.695C274.801 189.322 274.885 189.352 274.945 189.413C275.006 189.473 275.036 189.556 275.036 189.663V189.799C275.036 190.223 275.256 190.602 275.696 190.935C276.15 191.254 276.749 191.413 277.491 191.413C278.052 191.413 278.454 191.299 278.696 191.072C278.938 190.829 279.06 190.564 279.06 190.276C279.06 189.943 278.908 189.693 278.605 189.526C278.302 189.359 277.749 189.155 276.946 188.912L276.287 188.731C274.786 188.276 273.529 187.67 272.513 186.912C271.498 186.154 270.99 185.056 270.99 183.616C270.99 182.662 271.248 181.82 271.763 181.093C272.278 180.351 272.983 179.782 273.877 179.388C274.786 178.994 275.802 178.797 276.923 178.797C278.105 178.797 279.173 179.017 280.128 179.457C281.098 179.896 281.856 180.517 282.401 181.32C282.962 182.124 283.242 183.04 283.242 184.071V184.275C283.242 184.381 283.212 184.465 283.151 184.525C283.091 184.586 283.007 184.616 282.901 184.616H279.378C279.272 184.616 279.189 184.586 279.128 184.525C279.067 184.465 279.037 184.381 279.037 184.275V184.253C279.037 183.798 278.832 183.389 278.423 183.025C278.014 182.646 277.461 182.457 276.764 182.457C276.279 182.457 275.893 182.555 275.605 182.752C275.332 182.949 275.195 183.222 275.195 183.571C275.195 183.844 275.294 184.078 275.491 184.275C275.703 184.457 276.021 184.639 276.446 184.821C276.87 184.988 277.522 185.207 278.401 185.48C278.522 185.526 279.052 185.692 279.992 185.98C280.946 186.253 281.742 186.761 282.378 187.503C283.015 188.231 283.333 189.117 283.333 190.163C283.333 191.178 283.075 192.057 282.56 192.799C282.045 193.527 281.325 194.087 280.401 194.481C279.476 194.875 278.401 195.072 277.173 195.072ZM296.711 178.979C296.818 178.979 296.901 179.009 296.962 179.07C297.022 179.131 297.052 179.214 297.052 179.32V182.321C297.052 182.427 297.022 182.51 296.962 182.571C296.901 182.631 296.818 182.662 296.711 182.662H292.893C292.817 182.662 292.779 182.699 292.779 182.775V194.55C292.779 194.656 292.749 194.739 292.688 194.8C292.628 194.86 292.544 194.891 292.438 194.891H288.847C288.741 194.891 288.657 194.86 288.597 194.8C288.536 194.739 288.506 194.656 288.506 194.55V182.775C288.506 182.699 288.468 182.662 288.392 182.662H284.687C284.581 182.662 284.498 182.631 284.437 182.571C284.376 182.51 284.346 182.427 284.346 182.321V179.32C284.346 179.214 284.376 179.131 284.437 179.07C284.498 179.009 284.581 178.979 284.687 178.979H296.711Z" fill="white"/>
<path d="M221.28 216.057C220.037 216.057 218.939 215.814 217.984 215.329C217.044 214.845 216.309 214.163 215.779 213.284C215.264 212.39 215.006 211.359 215.006 210.192V205.601C215.006 204.449 215.264 203.434 215.779 202.555C216.309 201.676 217.044 200.994 217.984 200.509C218.939 200.024 220.037 199.782 221.28 199.782C222.522 199.782 223.613 200.009 224.553 200.464C225.508 200.918 226.243 201.562 226.758 202.396C227.288 203.214 227.553 204.169 227.553 205.26C227.553 205.396 227.44 205.48 227.213 205.51L223.621 205.737H223.553C223.371 205.737 223.28 205.654 223.28 205.487C223.28 204.866 223.098 204.373 222.735 204.01C222.371 203.631 221.886 203.441 221.28 203.441C220.674 203.441 220.189 203.631 219.825 204.01C219.461 204.373 219.28 204.866 219.28 205.487V210.374C219.28 210.98 219.461 211.473 219.825 211.852C220.189 212.215 220.674 212.397 221.28 212.397C221.886 212.397 222.371 212.215 222.735 211.852C223.098 211.473 223.28 210.98 223.28 210.374C223.28 210.283 223.31 210.215 223.371 210.17C223.432 210.124 223.515 210.109 223.621 210.124L227.213 210.306C227.44 210.321 227.553 210.397 227.553 210.533C227.553 211.624 227.288 212.587 226.758 213.42C226.243 214.254 225.508 214.905 224.553 215.375C223.613 215.83 222.522 216.057 221.28 216.057ZM235.222 216.148C233.964 216.148 232.851 215.898 231.881 215.398C230.926 214.882 230.184 214.17 229.653 213.261C229.123 212.337 228.858 211.268 228.858 210.056V205.783C228.858 204.601 229.123 203.555 229.653 202.646C230.184 201.737 230.926 201.032 231.881 200.532C232.851 200.032 233.964 199.782 235.222 199.782C236.495 199.782 237.609 200.032 238.564 200.532C239.533 201.032 240.284 201.737 240.814 202.646C241.344 203.555 241.61 204.601 241.61 205.783V210.056C241.61 211.268 241.344 212.337 240.814 213.261C240.284 214.17 239.533 214.882 238.564 215.398C237.609 215.898 236.495 216.148 235.222 216.148ZM235.222 212.488C235.859 212.488 236.366 212.284 236.745 211.874C237.139 211.45 237.336 210.889 237.336 210.192V205.737C237.336 205.04 237.139 204.487 236.745 204.078C236.366 203.653 235.859 203.441 235.222 203.441C234.601 203.441 234.093 203.653 233.699 204.078C233.32 204.487 233.131 205.04 233.131 205.737V210.192C233.131 210.889 233.32 211.45 233.699 211.874C234.093 212.284 234.601 212.488 235.222 212.488ZM253.341 200.191C253.432 200.039 253.568 199.964 253.75 199.964H257.296C257.402 199.964 257.485 199.994 257.546 200.054C257.606 200.115 257.637 200.198 257.637 200.305V215.534C257.637 215.64 257.606 215.723 257.546 215.784C257.485 215.845 257.402 215.875 257.296 215.875H253.704C253.598 215.875 253.515 215.845 253.454 215.784C253.394 215.723 253.363 215.64 253.363 215.534V207.283C253.363 207.222 253.348 207.192 253.318 207.192C253.288 207.177 253.257 207.192 253.227 207.237L251.681 209.76C251.59 209.912 251.454 209.988 251.272 209.988H249.545C249.363 209.988 249.226 209.912 249.136 209.76L247.59 207.237C247.56 207.192 247.529 207.177 247.499 207.192C247.469 207.192 247.453 207.222 247.453 207.283V215.534C247.453 215.64 247.423 215.723 247.363 215.784C247.302 215.845 247.219 215.875 247.112 215.875H243.521C243.415 215.875 243.332 215.845 243.271 215.784C243.21 215.723 243.18 215.64 243.18 215.534V200.305C243.18 200.198 243.21 200.115 243.271 200.054C243.332 199.994 243.415 199.964 243.521 199.964H247.067C247.249 199.964 247.385 200.039 247.476 200.191L250.34 204.805C250.386 204.896 250.431 204.896 250.477 204.805L253.341 200.191ZM266.34 199.964C267.416 199.964 268.363 200.183 269.181 200.623C269.999 201.047 270.628 201.661 271.068 202.464C271.522 203.252 271.749 204.161 271.749 205.192C271.749 206.207 271.515 207.101 271.045 207.874C270.575 208.647 269.916 209.245 269.067 209.67C268.219 210.094 267.241 210.306 266.135 210.306H263.726C263.65 210.306 263.612 210.344 263.612 210.42V215.534C263.612 215.64 263.582 215.723 263.521 215.784C263.46 215.845 263.377 215.875 263.271 215.875H259.68C259.573 215.875 259.49 215.845 259.429 215.784C259.369 215.723 259.339 215.64 259.339 215.534V200.305C259.339 200.198 259.369 200.115 259.429 200.054C259.49 199.994 259.573 199.964 259.68 199.964H266.34ZM265.635 206.896C266.196 206.896 266.643 206.752 266.976 206.465C267.325 206.161 267.499 205.767 267.499 205.283C267.499 204.782 267.325 204.381 266.976 204.078C266.643 203.775 266.196 203.623 265.635 203.623H263.726C263.65 203.623 263.612 203.661 263.612 203.737V206.783C263.612 206.859 263.65 206.896 263.726 206.896H265.635ZM281.898 215.875C281.686 215.875 281.557 215.777 281.512 215.58L281.012 213.807C280.982 213.746 280.944 213.716 280.898 213.716H276.079C276.034 213.716 275.996 213.746 275.966 213.807L275.466 215.58C275.42 215.777 275.291 215.875 275.079 215.875H271.192C270.919 215.875 270.821 215.746 270.897 215.489L275.693 200.236C275.754 200.054 275.882 199.964 276.079 199.964H280.898C281.095 199.964 281.224 200.054 281.285 200.236L286.081 215.489C286.096 215.519 286.104 215.564 286.104 215.625C286.104 215.792 285.997 215.875 285.785 215.875H281.898ZM276.966 210.306C276.951 210.397 276.981 210.442 277.057 210.442H279.898C279.989 210.442 280.019 210.397 279.989 210.306L278.534 205.214C278.519 205.169 278.496 205.146 278.466 205.146C278.436 205.146 278.413 205.169 278.398 205.214L276.966 210.306ZM296.398 200.305C296.398 200.198 296.428 200.115 296.488 200.054C296.549 199.994 296.632 199.964 296.738 199.964H300.33C300.436 199.964 300.519 199.994 300.58 200.054C300.641 200.115 300.671 200.198 300.671 200.305V215.534C300.671 215.64 300.641 215.723 300.58 215.784C300.519 215.845 300.436 215.875 300.33 215.875H296.898C296.716 215.875 296.579 215.799 296.488 215.648L291.851 207.919C291.821 207.874 291.791 207.859 291.76 207.874C291.73 207.874 291.715 207.904 291.715 207.965L291.76 215.534C291.76 215.64 291.73 215.723 291.67 215.784C291.609 215.845 291.526 215.875 291.419 215.875H287.828C287.722 215.875 287.639 215.845 287.578 215.784C287.517 215.723 287.487 215.64 287.487 215.534V200.305C287.487 200.198 287.517 200.115 287.578 200.054C287.639 199.994 287.722 199.964 287.828 199.964H291.26C291.442 199.964 291.579 200.039 291.67 200.191L296.284 207.919C296.314 207.965 296.344 207.987 296.375 207.987C296.405 207.972 296.42 207.934 296.42 207.874L296.398 200.305ZM307.154 215.83C307.048 215.83 306.964 215.799 306.904 215.739C306.843 215.678 306.813 215.595 306.813 215.489V210.465L306.79 210.329L302.153 200.373L302.108 200.191C302.108 200.039 302.206 199.964 302.403 199.964H306.313C306.51 199.964 306.646 200.054 306.722 200.236L308.881 205.669C308.927 205.775 308.972 205.775 309.018 205.669L311.177 200.236C311.253 200.054 311.389 199.964 311.586 199.964H315.519C315.716 199.964 315.814 200.039 315.814 200.191L315.769 200.373L311.086 210.329C311.071 210.359 311.063 210.404 311.063 210.465V215.489C311.063 215.595 311.033 215.678 310.972 215.739C310.912 215.799 310.829 215.83 310.722 215.83H307.154Z" fill="white"/>
<path d="M109.138 204.258V253.753L92.6966 257.723L83.4604 259.954C83.4207 259.964 83.3801 259.971 83.3392 259.975C82.427 260.189 80.584 260.648 80.584 260.648C79.7902 259.726 78.8843 258.907 77.8873 258.21L69.8516 251.663L80.5812 243.562V203.695L109.138 204.258Z" fill="#BFBFBF"/>
<path d="M109.137 119.041V158.544L80.659 165.663V143.663L70.5391 121.376L77.4774 112.671C78.6585 111.517 79.7241 110.251 80.6592 108.891C80.6592 108.891 82.9538 109.712 84.0584 110.104L88.7406 111.771L109.137 119.041Z" fill="#BFBFBF"/>
<path d="M228.797 224.894L228.35 226.512L179.049 233.598V224.333L204.341 220.121L224.182 221.71L228.85 222.081C228.865 222.08 228.88 222.082 228.893 222.088C229.321 222.124 231.145 222.268 231.145 222.268C231.145 222.268 228.797 224.039 228.797 224.894Z" fill="#BFBFBF"/>
<path d="M228.397 140.181L230.099 144.534C230.288 145.551 230.641 146.531 231.145 147.435C231.145 147.435 229.021 147.789 228.301 147.917C228.299 147.92 228.295 147.922 228.292 147.923C228.288 147.924 228.284 147.925 228.28 147.924L218.41 149.613L204.277 152.036L179.049 143.164V122.902L194.307 130.086L228.397 140.181Z" fill="#BFBFBF"/>
<path d="M179.047 122.904V233.602L231.152 222.272V250.143L147.539 287.701C146.979 287.963 146.122 288.348 145.405 288.663C144.688 288.977 144.111 289.24 144.111 289.24V67.0039L231.152 124.512V147.435L179.047 122.904Z" fill="white"/>
<path d="M144.047 66.9453L109.135 90.2582V158.545L80.6585 165.665V108.894L57.0605 124.524V250.142L80.5815 260.647V203.695L109.135 204.256V273.285L144.103 289.232L144.047 66.9453Z" fill="#1A1A1A"/>
</svg>
