<svg width="561" height="499" viewBox="0 0 561 499" fill="none" xmlns="http://www.w3.org/2000/svg">
<path d="M151.371 368.833L186.241 366.152V360.047L151.371 368.833Z" fill="url(#paint0_radial_3072_13126)"/>
<path opacity="0.2" d="M228.941 405.261L560.999 375.173V338.277H335.24V355.448L228.941 405.261Z" fill="url(#paint1_linear_3072_13126)"/>
<path d="M186.241 296.971V360.046L166.163 365.105L154.883 367.948C154.835 367.961 154.785 367.97 154.735 367.975C153.621 368.247 151.37 368.832 151.37 368.832C150.401 367.658 149.295 366.614 148.077 365.726L138.264 357.382L151.367 347.059V296.254L186.241 296.971Z" fill="#BFBFBF"/>
<path d="M186.242 188.376V238.718L151.464 247.791V219.755L139.105 191.352L147.579 180.258C149.021 178.789 150.322 177.175 151.464 175.441C151.464 175.441 154.267 176.488 155.616 176.987L161.334 179.112L186.242 188.376Z" fill="#BFBFBF"/>
<path d="M332.374 323.27L331.829 325.332L271.621 334.362V322.555L302.509 317.188L326.739 319.213L332.44 319.685C332.458 319.684 332.475 319.687 332.492 319.694C333.014 319.74 335.242 319.924 335.242 319.924C335.242 319.924 332.374 322.18 332.374 323.27Z" fill="#BFBFBF"/>
<path d="M331.886 215.32L333.964 220.867C334.195 222.163 334.627 223.412 335.242 224.564C335.242 224.564 332.649 225.015 331.769 225.179C331.766 225.182 331.762 225.185 331.757 225.186C331.753 225.188 331.748 225.189 331.743 225.188L319.689 227.34L302.431 230.428L271.621 219.121V193.301L290.255 202.455L331.886 215.32Z" fill="#BFBFBF"/>
<path d="M271.617 193.296V334.367L335.25 319.928V355.446L233.139 403.309C232.455 403.643 231.409 404.133 230.533 404.534C229.658 404.935 228.953 405.27 228.953 405.27V122.059L335.249 195.346V224.558L271.617 193.296Z" fill="white"/>
<path d="M228.877 121.984L186.239 151.694V238.716L151.463 247.789V175.442L122.645 195.361V355.445L151.371 368.833V296.254L186.239 296.969V384.938L228.943 405.26L228.877 121.984Z" fill="#1A1A1A"/>
<defs>
<radialGradient id="paint0_radial_3072_13126" cx="0" cy="0" r="1" gradientUnits="userSpaceOnUse" gradientTransform="translate(168.806 364.44) scale(52.3147 54.5915)">
<stop offset="0.27263"/>
<stop offset="0.85622" stop-color="white"/>
</radialGradient>
<linearGradient id="paint1_linear_3072_13126" x1="177.33" y1="370.883" x2="566.467" y2="370.883" gradientUnits="userSpaceOnUse">
<stop offset="0.04469" stop-color="#737373"/>
<stop offset="0.848396" stop-color="white" stop-opacity="0"/>
</linearGradient>
</defs>
</svg>
